<svg viewBox="0 0 1440 900" width="1440" height="900" xmlns="http://www.w3.org/2000/svg" xmlns:xlink="http://www.w3.org/1999/xlink" version="1.1"><g stroke-width="1" stroke-linejoin="bevel"><path d="M828 461L920 588L927 481Z" fill="#ddf5f7" stroke="#ddf5f7"></path><path d="M828 461L826 625L920 588Z" fill="#ddf5f7" stroke="#ddf5f7"></path><path d="M826 625L835 710L920 588Z" fill="#c9f0f3" stroke="#c9f0f3"></path><path d="M828 461L650 627L826 625Z" fill="#d1f2f4" stroke="#d1f2f4"></path><path d="M826 625L667 731L835 710Z" fill="#d5f3f5" stroke="#d5f3f5"></path><path d="M948 267L772 305L828 461Z" fill="#d1f2f4" stroke="#d1f2f4"></path><path d="M828 461L602 442L650 627Z" fill="#e9f8f9" stroke="#e9f8f9"></path><path d="M836 900L958 774L835 710Z" fill="#d9f4f6" stroke="#d9f4f6"></path><path d="M835 710L958 774L920 588Z" fill="#e9f8f9" stroke="#e9f8f9"></path><path d="M920 588L1108 637L927 481Z" fill="#cdf1f4" stroke="#cdf1f4"></path><path d="M958 774L1108 637L920 588Z" fill="#d9f4f6" stroke="#d9f4f6"></path><path d="M927 481L948 267L828 461Z" fill="#c9f0f3" stroke="#c9f0f3"></path><path d="M1125 335L948 267L927 481Z" fill="#e9f8f9" stroke="#e9f8f9"></path><path d="M772 305L602 442L828 461Z" fill="#c9f0f3" stroke="#c9f0f3"></path><path d="M487 711L667 731L650 627Z" fill="#d9f4f6" stroke="#d9f4f6"></path><path d="M650 627L667 731L826 625Z" fill="#cdf1f4" stroke="#cdf1f4"></path><path d="M1108 637L1132 434L927 481Z" fill="#d5f3f5" stroke="#d5f3f5"></path><path d="M826 128L673 286L772 305Z" fill="#cdf1f4" stroke="#cdf1f4"></path><path d="M772 305L673 286L602 442Z" fill="#c9f0f3" stroke="#c9f0f3"></path><path d="M1132 434L1125 335L927 481Z" fill="#e1f6f7" stroke="#e1f6f7"></path><path d="M958 774L1109 756L1108 637Z" fill="#ddf5f7" stroke="#ddf5f7"></path><path d="M1108 637L1242 480L1132 434Z" fill="#e5f7f8" stroke="#e5f7f8"></path><path d="M667 731L836 900L835 710Z" fill="#e5f7f8" stroke="#e5f7f8"></path><path d="M958 774L961 900L1109 756Z" fill="#c9f0f3" stroke="#c9f0f3"></path><path d="M1297 588L1242 480L1108 637Z" fill="#c4eff3" stroke="#c4eff3"></path><path d="M1132 434L1289 319L1125 335Z" fill="#d9f4f6" stroke="#d9f4f6"></path><path d="M836 900L961 900L958 774Z" fill="#c0eef2" stroke="#c0eef2"></path><path d="M1125 335L997 155L948 267Z" fill="#cdf1f4" stroke="#cdf1f4"></path><path d="M948 267L826 128L772 305Z" fill="#c4eff3" stroke="#c4eff3"></path><path d="M1147 152L997 155L1125 335Z" fill="#e1f6f7" stroke="#e1f6f7"></path><path d="M453 450L478 637L602 442Z" fill="#cdf1f4" stroke="#cdf1f4"></path><path d="M602 442L478 637L650 627Z" fill="#e5f7f8" stroke="#e5f7f8"></path><path d="M667 731L653 900L836 900Z" fill="#cdf1f4" stroke="#cdf1f4"></path><path d="M997 155L826 128L948 267Z" fill="#cdf1f4" stroke="#cdf1f4"></path><path d="M478 637L487 711L650 627Z" fill="#cdf1f4" stroke="#cdf1f4"></path><path d="M483 278L602 442L673 286Z" fill="#cdf1f4" stroke="#cdf1f4"></path><path d="M483 278L453 450L602 442Z" fill="#c4eff3" stroke="#c4eff3"></path><path d="M478 637L351 636L487 711Z" fill="#cdf1f4" stroke="#cdf1f4"></path><path d="M487 711L653 900L667 731Z" fill="#d9f4f6" stroke="#d9f4f6"></path><path d="M1302 771L1297 588L1108 637Z" fill="#c4eff3" stroke="#c4eff3"></path><path d="M1302 771L1108 637L1109 756Z" fill="#c9f0f3" stroke="#c9f0f3"></path><path d="M636 127L483 278L673 286Z" fill="#ddf5f7" stroke="#ddf5f7"></path><path d="M826 128L636 127L673 286Z" fill="#c4eff3" stroke="#c4eff3"></path><path d="M961 900L1158 900L1109 756Z" fill="#e1f6f7" stroke="#e1f6f7"></path><path d="M1289 319L1132 434L1242 480Z" fill="#ddf5f7" stroke="#ddf5f7"></path><path d="M1257 164L1147 152L1125 335Z" fill="#ddf5f7" stroke="#ddf5f7"></path><path d="M956 0L814 0L826 128Z" fill="#c4eff3" stroke="#c4eff3"></path><path d="M1440 462L1289 319L1242 480Z" fill="#e1f6f7" stroke="#e1f6f7"></path><path d="M1158 900L1302 771L1109 756Z" fill="#d1f2f4" stroke="#d1f2f4"></path><path d="M453 450L351 636L478 637Z" fill="#e9f8f9" stroke="#e9f8f9"></path><path d="M487 711L470 900L653 900Z" fill="#ddf5f7" stroke="#ddf5f7"></path><path d="M298 417L351 636L453 450Z" fill="#d9f4f6" stroke="#d9f4f6"></path><path d="M956 0L826 128L997 155Z" fill="#c4eff3" stroke="#c4eff3"></path><path d="M826 128L814 0L636 127Z" fill="#e9f8f9" stroke="#e9f8f9"></path><path d="M1289 319L1257 164L1125 335Z" fill="#d5f3f5" stroke="#d5f3f5"></path><path d="M1105 0L956 0L997 155Z" fill="#cdf1f4" stroke="#cdf1f4"></path><path d="M1105 0L997 155L1147 152Z" fill="#d5f3f5" stroke="#d5f3f5"></path><path d="M311 750L470 900L487 711Z" fill="#e5f7f8" stroke="#e5f7f8"></path><path d="M1158 900L1279 900L1302 771Z" fill="#d1f2f4" stroke="#d1f2f4"></path><path d="M341 189L326 331L483 278Z" fill="#e5f7f8" stroke="#e5f7f8"></path><path d="M483 278L326 331L453 450Z" fill="#cdf1f4" stroke="#cdf1f4"></path><path d="M465 114L483 278L636 127Z" fill="#d5f3f5" stroke="#d5f3f5"></path><path d="M814 0L641 0L636 127Z" fill="#ddf5f7" stroke="#ddf5f7"></path><path d="M1440 735L1440 587L1297 588Z" fill="#d1f2f4" stroke="#d1f2f4"></path><path d="M1297 588L1440 462L1242 480Z" fill="#d1f2f4" stroke="#d1f2f4"></path><path d="M1289 319L1440 260L1257 164Z" fill="#d5f3f5" stroke="#d5f3f5"></path><path d="M1440 735L1297 588L1302 771Z" fill="#d9f4f6" stroke="#d9f4f6"></path><path d="M474 0L465 114L636 127Z" fill="#e1f6f7" stroke="#e1f6f7"></path><path d="M1440 587L1440 462L1297 588Z" fill="#c4eff3" stroke="#c4eff3"></path><path d="M326 331L298 417L453 450Z" fill="#e1f6f7" stroke="#e1f6f7"></path><path d="M1284 0L1105 0L1147 152Z" fill="#e1f6f7" stroke="#e1f6f7"></path><path d="M189 599L311 750L351 636Z" fill="#ddf5f7" stroke="#ddf5f7"></path><path d="M351 636L311 750L487 711Z" fill="#e1f6f7" stroke="#e1f6f7"></path><path d="M1440 900L1440 735L1302 771Z" fill="#e1f6f7" stroke="#e1f6f7"></path><path d="M326 331L176 430L298 417Z" fill="#c4eff3" stroke="#c4eff3"></path><path d="M465 114L341 189L483 278Z" fill="#e9f8f9" stroke="#e9f8f9"></path><path d="M318 0L341 189L465 114Z" fill="#d9f4f6" stroke="#d9f4f6"></path><path d="M1440 462L1440 260L1289 319Z" fill="#c4eff3" stroke="#c4eff3"></path><path d="M1257 164L1284 0L1147 152Z" fill="#c0eef2" stroke="#c0eef2"></path><path d="M641 0L474 0L636 127Z" fill="#c4eff3" stroke="#c4eff3"></path><path d="M186 900L307 900L311 750Z" fill="#d1f2f4" stroke="#d1f2f4"></path><path d="M311 750L307 900L470 900Z" fill="#e1f6f7" stroke="#e1f6f7"></path><path d="M1440 260L1440 186L1257 164Z" fill="#ddf5f7" stroke="#ddf5f7"></path><path d="M1440 186L1284 0L1257 164Z" fill="#ddf5f7" stroke="#ddf5f7"></path><path d="M298 417L189 599L351 636Z" fill="#e5f7f8" stroke="#e5f7f8"></path><path d="M176 430L189 599L298 417Z" fill="#c0eef2" stroke="#c0eef2"></path><path d="M1279 900L1440 900L1302 771Z" fill="#c0eef2" stroke="#c0eef2"></path><path d="M157 261L176 430L326 331Z" fill="#c0eef2" stroke="#c0eef2"></path><path d="M124 177L157 261L341 189Z" fill="#ddf5f7" stroke="#ddf5f7"></path><path d="M341 189L157 261L326 331Z" fill="#e5f7f8" stroke="#e5f7f8"></path><path d="M0 715L134 743L189 599Z" fill="#c4eff3" stroke="#c4eff3"></path><path d="M0 565L189 599L176 430Z" fill="#d5f3f5" stroke="#d5f3f5"></path><path d="M189 599L134 743L311 750Z" fill="#e1f6f7" stroke="#e1f6f7"></path><path d="M474 0L318 0L465 114Z" fill="#ddf5f7" stroke="#ddf5f7"></path><path d="M134 743L186 900L311 750Z" fill="#e1f6f7" stroke="#e1f6f7"></path><path d="M1440 186L1440 0L1284 0Z" fill="#d1f2f4" stroke="#d1f2f4"></path><path d="M194 0L124 177L341 189Z" fill="#d9f4f6" stroke="#d9f4f6"></path><path d="M0 423L0 565L176 430Z" fill="#e5f7f8" stroke="#e5f7f8"></path><path d="M318 0L194 0L341 189Z" fill="#e9f8f9" stroke="#e9f8f9"></path><path d="M0 423L176 430L157 261Z" fill="#c4eff3" stroke="#c4eff3"></path><path d="M134 743L0 900L186 900Z" fill="#d9f4f6" stroke="#d9f4f6"></path><path d="M0 276L157 261L124 177Z" fill="#d9f4f6" stroke="#d9f4f6"></path><path d="M0 276L0 423L157 261Z" fill="#c4eff3" stroke="#c4eff3"></path><path d="M0 565L0 715L189 599Z" fill="#e1f6f7" stroke="#e1f6f7"></path><path d="M0 181L0 276L124 177Z" fill="#e5f7f8" stroke="#e5f7f8"></path><path d="M0 0L0 181L124 177Z" fill="#c4eff3" stroke="#c4eff3"></path><path d="M0 715L0 900L134 743Z" fill="#cdf1f4" stroke="#cdf1f4"></path><path d="M194 0L0 0L124 177Z" fill="#cdf1f4" stroke="#cdf1f4"></path></g></svg>