<svg id="visual" viewBox="0 0 1440 3000" width="1440" height="3000" xmlns="http://www.w3.org/2000/svg" xmlns:xlink="http://www.w3.org/1999/xlink" version="1.1"><g stroke-width="1" stroke-linejoin="bevel"><path d="M823 1555.9L990 1430.1L823 1403.1Z" fill="#e2f6f7" stroke="#e2f6f7"></path><path d="M823 1555.9L990 1544.9L990 1430.1Z" fill="#cbf1f4" stroke="#cbf1f4"></path><path d="M990 1430.1L924 1273.2L823 1403.1Z" fill="#dff5f7" stroke="#dff5f7"></path><path d="M1103 1548.9L1092 1401.1L990 1430.1Z" fill="#d5f3f5" stroke="#d5f3f5"></path><path d="M990 1430.1L1092 1401.1L924 1273.2Z" fill="#cef1f4" stroke="#cef1f4"></path><path d="M1096 1754.8L1103 1548.9L990 1544.9Z" fill="#cbf1f4" stroke="#cbf1f4"></path><path d="M990 1544.9L1103 1548.9L990 1430.1Z" fill="#e2f6f7" stroke="#e2f6f7"></path><path d="M924 1273.2L781 1279.2L823 1403.1Z" fill="#d8f4f6" stroke="#d8f4f6"></path><path d="M611 1399.1L624 1592.9L823 1555.9Z" fill="#c7f0f3" stroke="#c7f0f3"></path><path d="M823 1555.9L956 1752.8L990 1544.9Z" fill="#cef1f4" stroke="#cef1f4"></path><path d="M611 1399.1L823 1555.9L823 1403.1Z" fill="#c7f0f3" stroke="#c7f0f3"></path><path d="M823 1555.9L767 1744.8L956 1752.8Z" fill="#dff5f7" stroke="#dff5f7"></path><path d="M624 1592.9L767 1744.8L823 1555.9Z" fill="#c7f0f3" stroke="#c7f0f3"></path><path d="M781 1279.2L611 1399.1L823 1403.1Z" fill="#d8f4f6" stroke="#d8f4f6"></path><path d="M781 1279.2L623 1295.2L611 1399.1Z" fill="#cef1f4" stroke="#cef1f4"></path><path d="M1262 1271.2L1146 1257.2L1092 1401.1Z" fill="#cef1f4" stroke="#cef1f4"></path><path d="M1092 1401.1L1146 1257.2L924 1273.2Z" fill="#c7f0f3" stroke="#c7f0f3"></path><path d="M924 1273.2L834 1142.3L781 1279.2Z" fill="#dff5f7" stroke="#dff5f7"></path><path d="M956 1752.8L1096 1754.8L990 1544.9Z" fill="#c7f0f3" stroke="#c7f0f3"></path><path d="M1103 1548.9L1302 1424.1L1092 1401.1Z" fill="#e5f7f8" stroke="#e5f7f8"></path><path d="M999 1088.3L834 1142.3L924 1273.2Z" fill="#d5f3f5" stroke="#d5f3f5"></path><path d="M781 1279.2L611 1082.3L623 1295.2Z" fill="#cef1f4" stroke="#cef1f4"></path><path d="M503 1595.9L606 1727.8L624 1592.9Z" fill="#d5f3f5" stroke="#d5f3f5"></path><path d="M624 1592.9L606 1727.8L767 1744.8Z" fill="#dff5f7" stroke="#dff5f7"></path><path d="M796 1873.7L947 1874.7L956 1752.8Z" fill="#c4eff3" stroke="#c4eff3"></path><path d="M956 1752.8L947 1874.7L1096 1754.8Z" fill="#e2f6f7" stroke="#e2f6f7"></path><path d="M796 1873.7L956 1752.8L767 1744.8Z" fill="#c4eff3" stroke="#c4eff3"></path><path d="M1274 1741.8L1286 1562.9L1103 1548.9Z" fill="#cef1f4" stroke="#cef1f4"></path><path d="M623 1295.2L504 1392.1L611 1399.1Z" fill="#cbf1f4" stroke="#cbf1f4"></path><path d="M611 1399.1L503 1595.9L624 1592.9Z" fill="#cbf1f4" stroke="#cbf1f4"></path><path d="M1146 1257.2L999 1088.3L924 1273.2Z" fill="#cef1f4" stroke="#cef1f4"></path><path d="M637 1883.7L796 1873.7L767 1744.8Z" fill="#d2f2f5" stroke="#d2f2f5"></path><path d="M1286 1562.9L1302 1424.1L1103 1548.9Z" fill="#c4eff3" stroke="#c4eff3"></path><path d="M1146 1257.2L1140 1126.3L999 1088.3Z" fill="#e2f6f7" stroke="#e2f6f7"></path><path d="M504 1392.1L503 1595.9L611 1399.1Z" fill="#dff5f7" stroke="#dff5f7"></path><path d="M1302 1424.1L1262 1271.2L1092 1401.1Z" fill="#dff5f7" stroke="#dff5f7"></path><path d="M1262 1271.2L1140 1126.3L1146 1257.2Z" fill="#cef1f4" stroke="#cef1f4"></path><path d="M1246 1866.7L1274 1741.8L1096 1754.8Z" fill="#e2f6f7" stroke="#e2f6f7"></path><path d="M1096 1754.8L1274 1741.8L1103 1548.9Z" fill="#c7f0f3" stroke="#c7f0f3"></path><path d="M1440 1560.9L1440 1430.1L1302 1424.1Z" fill="#d2f2f5" stroke="#d2f2f5"></path><path d="M611 1082.3L485 1259.2L623 1295.2Z" fill="#c7f0f3" stroke="#c7f0f3"></path><path d="M623 1295.2L485 1259.2L504 1392.1Z" fill="#c7f0f3" stroke="#c7f0f3"></path><path d="M316 1611.9L442 1719.8L503 1595.9Z" fill="#c7f0f3" stroke="#c7f0f3"></path><path d="M606 1727.8L637 1883.7L767 1744.8Z" fill="#c7f0f3" stroke="#c7f0f3"></path><path d="M1102 2056.6L1158 1928.7L947 1874.7Z" fill="#dbf5f6" stroke="#dbf5f6"></path><path d="M441 1904.7L637 1883.7L606 1727.8Z" fill="#c4eff3" stroke="#c4eff3"></path><path d="M814 946.4L611 1082.3L834 1142.3Z" fill="#dbf5f6" stroke="#dbf5f6"></path><path d="M834 1142.3L611 1082.3L781 1279.2Z" fill="#e2f6f7" stroke="#e2f6f7"></path><path d="M316 1611.9L503 1595.9L504 1392.1Z" fill="#cef1f4" stroke="#cef1f4"></path><path d="M503 1595.9L442 1719.8L606 1727.8Z" fill="#e5f7f8" stroke="#e5f7f8"></path><path d="M947 1874.7L1158 1928.7L1096 1754.8Z" fill="#d5f3f5" stroke="#d5f3f5"></path><path d="M795 2029.6L947 1874.7L796 1873.7Z" fill="#d8f4f6" stroke="#d8f4f6"></path><path d="M1158 1928.7L1246 1866.7L1096 1754.8Z" fill="#cbf1f4" stroke="#cbf1f4"></path><path d="M928 925.4L834 1142.3L999 1088.3Z" fill="#e5f7f8" stroke="#e5f7f8"></path><path d="M928 925.4L814 946.4L834 1142.3Z" fill="#d5f3f5" stroke="#d5f3f5"></path><path d="M1262 1271.2L1319 1142.3L1140 1126.3Z" fill="#d2f2f5" stroke="#d2f2f5"></path><path d="M1149 944.4L928 925.4L999 1088.3Z" fill="#c7f0f3" stroke="#c7f0f3"></path><path d="M1440 1243.2L1319 1142.3L1262 1271.2Z" fill="#dbf5f6" stroke="#dbf5f6"></path><path d="M1440 1560.9L1302 1424.1L1286 1562.9Z" fill="#cef1f4" stroke="#cef1f4"></path><path d="M1302 1424.1L1440 1243.2L1262 1271.2Z" fill="#d8f4f6" stroke="#d8f4f6"></path><path d="M1440 1560.9L1286 1562.9L1440 1697.8Z" fill="#d5f3f5" stroke="#d5f3f5"></path><path d="M1440 1697.8L1286 1562.9L1274 1741.8Z" fill="#dbf5f6" stroke="#dbf5f6"></path><path d="M1149 944.4L999 1088.3L1140 1126.3Z" fill="#dff5f7" stroke="#dff5f7"></path><path d="M647 2019.6L796 1873.7L637 1883.7Z" fill="#dbf5f6" stroke="#dbf5f6"></path><path d="M647 2019.6L795 2029.6L796 1873.7Z" fill="#dff5f7" stroke="#dff5f7"></path><path d="M611 1082.3L497 1076.3L485 1259.2Z" fill="#d2f2f5" stroke="#d2f2f5"></path><path d="M280 1393.1L316 1611.9L504 1392.1Z" fill="#d5f3f5" stroke="#d5f3f5"></path><path d="M453 937.4L497 1076.3L611 1082.3Z" fill="#d5f3f5" stroke="#d5f3f5"></path><path d="M1440 1928.7L1440 1697.8L1274 1741.8Z" fill="#d5f3f5" stroke="#d5f3f5"></path><path d="M1302 973.4L1149 944.4L1140 1126.3Z" fill="#dbf5f6" stroke="#dbf5f6"></path><path d="M1440 1430.1L1440 1243.2L1302 1424.1Z" fill="#d2f2f5" stroke="#d2f2f5"></path><path d="M1319 1142.3L1302 973.4L1140 1126.3Z" fill="#d8f4f6" stroke="#d8f4f6"></path><path d="M496 2014.6L647 2019.6L637 1883.7Z" fill="#dff5f7" stroke="#dff5f7"></path><path d="M814 754.5L667 930.4L814 946.4Z" fill="#c4eff3" stroke="#c4eff3"></path><path d="M814 946.4L667 930.4L611 1082.3Z" fill="#c7f0f3" stroke="#c7f0f3"></path><path d="M354 1227.2L504 1392.1L485 1259.2Z" fill="#d5f3f5" stroke="#d5f3f5"></path><path d="M442 1719.8L441 1904.7L606 1727.8Z" fill="#dbf5f6" stroke="#dbf5f6"></path><path d="M999 2218.5L959 2071.6L770 2248.5Z" fill="#d5f3f5" stroke="#d5f3f5"></path><path d="M795 2029.6L959 2071.6L947 1874.7Z" fill="#d2f2f5" stroke="#d2f2f5"></path><path d="M1158 1928.7L1304 2046.6L1246 1866.7Z" fill="#e5f7f8" stroke="#e5f7f8"></path><path d="M497 1076.3L354 1227.2L485 1259.2Z" fill="#e5f7f8" stroke="#e5f7f8"></path><path d="M959 2071.6L1102 2056.6L947 1874.7Z" fill="#e2f6f7" stroke="#e2f6f7"></path><path d="M1246 1866.7L1440 1928.7L1274 1741.8Z" fill="#cef1f4" stroke="#cef1f4"></path><path d="M354 1227.2L280 1393.1L504 1392.1Z" fill="#cef1f4" stroke="#cef1f4"></path><path d="M282 1854.7L441 1904.7L442 1719.8Z" fill="#d8f4f6" stroke="#d8f4f6"></path><path d="M316 1611.9L298 1726.8L442 1719.8Z" fill="#e5f7f8" stroke="#e5f7f8"></path><path d="M152 1749.8L298 1726.8L316 1611.9Z" fill="#e2f6f7" stroke="#e2f6f7"></path><path d="M1440 1125.3L1302 973.4L1319 1142.3Z" fill="#dff5f7" stroke="#dff5f7"></path><path d="M1440 1243.2L1440 1125.3L1319 1142.3Z" fill="#c4eff3" stroke="#c4eff3"></path><path d="M441 1904.7L496 2014.6L637 1883.7Z" fill="#e5f7f8" stroke="#e5f7f8"></path><path d="M770 2248.5L959 2071.6L795 2029.6Z" fill="#cef1f4" stroke="#cef1f4"></path><path d="M302 2052.6L496 2014.6L441 1904.7Z" fill="#c4eff3" stroke="#c4eff3"></path><path d="M1258 2233.5L1304 2046.6L1102 2056.6Z" fill="#c4eff3" stroke="#c4eff3"></path><path d="M1102 2056.6L1304 2046.6L1158 1928.7Z" fill="#e5f7f8" stroke="#e5f7f8"></path><path d="M667 930.4L453 937.4L611 1082.3Z" fill="#cbf1f4" stroke="#cbf1f4"></path><path d="M497 1076.3L280 1141.3L354 1227.2Z" fill="#e2f6f7" stroke="#e2f6f7"></path><path d="M147 1409.1L197 1540.9L280 1393.1Z" fill="#d2f2f5" stroke="#d2f2f5"></path><path d="M124 1244.2L280 1393.1L354 1227.2Z" fill="#c4eff3" stroke="#c4eff3"></path><path d="M280 1393.1L197 1540.9L316 1611.9Z" fill="#c7f0f3" stroke="#c7f0f3"></path><path d="M297 979.4L280 1141.3L497 1076.3Z" fill="#cef1f4" stroke="#cef1f4"></path><path d="M1304 2046.6L1440 1928.7L1246 1866.7Z" fill="#c7f0f3" stroke="#c7f0f3"></path><path d="M1133 794.5L999 771.5L1149 944.4Z" fill="#d2f2f5" stroke="#d2f2f5"></path><path d="M1149 944.4L999 771.5L928 925.4Z" fill="#cbf1f4" stroke="#cbf1f4"></path><path d="M928 925.4L814 754.5L814 946.4Z" fill="#dff5f7" stroke="#dff5f7"></path><path d="M667 930.4L630 798.5L453 937.4Z" fill="#dff5f7" stroke="#dff5f7"></path><path d="M152 1749.8L282 1854.7L298 1726.8Z" fill="#cbf1f4" stroke="#cbf1f4"></path><path d="M298 1726.8L282 1854.7L442 1719.8Z" fill="#c4eff3" stroke="#c4eff3"></path><path d="M1310 753.5L1133 794.5L1149 944.4Z" fill="#d2f2f5" stroke="#d2f2f5"></path><path d="M999 771.5L814 754.5L928 925.4Z" fill="#c7f0f3" stroke="#c7f0f3"></path><path d="M814 754.5L630 798.5L667 930.4Z" fill="#d8f4f6" stroke="#d8f4f6"></path><path d="M770 2248.5L795 2029.6L665 2245.5Z" fill="#d2f2f5" stroke="#d2f2f5"></path><path d="M959 2071.6L999 2218.5L1102 2056.6Z" fill="#e5f7f8" stroke="#e5f7f8"></path><path d="M1440 1125.3L1440 962.4L1302 973.4Z" fill="#c4eff3" stroke="#c4eff3"></path><path d="M1302 973.4L1310 753.5L1149 944.4Z" fill="#e5f7f8" stroke="#e5f7f8"></path><path d="M124 1244.2L147 1409.1L280 1393.1Z" fill="#cbf1f4" stroke="#cbf1f4"></path><path d="M197 1540.9L152 1749.8L316 1611.9Z" fill="#dbf5f6" stroke="#dbf5f6"></path><path d="M1440 2213.5L1440 2030.6L1304 2046.6Z" fill="#d5f3f5" stroke="#d5f3f5"></path><path d="M1304 2046.6L1440 2030.6L1440 1928.7Z" fill="#dff5f7" stroke="#dff5f7"></path><path d="M665 2245.5L647 2019.6L501 2226.5Z" fill="#d5f3f5" stroke="#d5f3f5"></path><path d="M665 2245.5L795 2029.6L647 2019.6Z" fill="#dbf5f6" stroke="#dbf5f6"></path><path d="M453 937.4L297 979.4L497 1076.3Z" fill="#d2f2f5" stroke="#d2f2f5"></path><path d="M280 1141.3L124 1244.2L354 1227.2Z" fill="#e2f6f7" stroke="#e2f6f7"></path><path d="M357 812.5L297 979.4L453 937.4Z" fill="#c7f0f3" stroke="#c7f0f3"></path><path d="M0 1550.9L152 1749.8L197 1540.9Z" fill="#d2f2f5" stroke="#d2f2f5"></path><path d="M501 2226.5L647 2019.6L496 2014.6Z" fill="#cbf1f4" stroke="#cbf1f4"></path><path d="M302 2052.6L441 1904.7L282 1854.7Z" fill="#e2f6f7" stroke="#e2f6f7"></path><path d="M980 2374.4L1125 2248.5L999 2218.5Z" fill="#dbf5f6" stroke="#dbf5f6"></path><path d="M999 2218.5L1125 2248.5L1102 2056.6Z" fill="#c4eff3" stroke="#c4eff3"></path><path d="M164 1139.3L124 1244.2L280 1141.3Z" fill="#d2f2f5" stroke="#d2f2f5"></path><path d="M147 1409.1L0 1550.9L197 1540.9Z" fill="#dff5f7" stroke="#dff5f7"></path><path d="M297 979.4L164 1139.3L280 1141.3Z" fill="#d2f2f5" stroke="#d2f2f5"></path><path d="M157 1915.7L302 2052.6L282 1854.7Z" fill="#dff5f7" stroke="#dff5f7"></path><path d="M608 610.6L468 772.5L630 798.5Z" fill="#e2f6f7" stroke="#e2f6f7"></path><path d="M630 798.5L468 772.5L453 937.4Z" fill="#cbf1f4" stroke="#cbf1f4"></path><path d="M297 979.4L176 907.4L164 1139.3Z" fill="#d2f2f5" stroke="#d2f2f5"></path><path d="M1440 798.5L1310 753.5L1302 973.4Z" fill="#cbf1f4" stroke="#cbf1f4"></path><path d="M1084 598.6L983 627.6L999 771.5Z" fill="#e2f6f7" stroke="#e2f6f7"></path><path d="M999 771.5L983 627.6L814 754.5Z" fill="#dff5f7" stroke="#dff5f7"></path><path d="M1125 2248.5L1258 2233.5L1102 2056.6Z" fill="#d5f3f5" stroke="#d5f3f5"></path><path d="M354 2239.5L501 2226.5L496 2014.6Z" fill="#e2f6f7" stroke="#e2f6f7"></path><path d="M1084 598.6L999 771.5L1133 794.5Z" fill="#cef1f4" stroke="#cef1f4"></path><path d="M814 754.5L608 610.6L630 798.5Z" fill="#cbf1f4" stroke="#cbf1f4"></path><path d="M468 772.5L357 812.5L453 937.4Z" fill="#e5f7f8" stroke="#e5f7f8"></path><path d="M152 1749.8L157 1915.7L282 1854.7Z" fill="#d8f4f6" stroke="#d8f4f6"></path><path d="M0 1888.7L157 1915.7L152 1749.8Z" fill="#cef1f4" stroke="#cef1f4"></path><path d="M665 2245.5L795 2344.4L770 2248.5Z" fill="#cef1f4" stroke="#cef1f4"></path><path d="M770 2248.5L795 2344.4L999 2218.5Z" fill="#cef1f4" stroke="#cef1f4"></path><path d="M1125 2248.5L1138 2356.4L1258 2233.5Z" fill="#d5f3f5" stroke="#d5f3f5"></path><path d="M649 2375.4L795 2344.4L665 2245.5Z" fill="#c7f0f3" stroke="#c7f0f3"></path><path d="M1440 962.4L1440 798.5L1302 973.4Z" fill="#e2f6f7" stroke="#e2f6f7"></path><path d="M1296 614.6L1084 598.6L1133 794.5Z" fill="#d5f3f5" stroke="#d5f3f5"></path><path d="M983 627.6L793 595.6L814 754.5Z" fill="#c7f0f3" stroke="#c7f0f3"></path><path d="M468 772.5L353 648.6L357 812.5Z" fill="#dff5f7" stroke="#dff5f7"></path><path d="M795 2344.4L980 2374.4L999 2218.5Z" fill="#dff5f7" stroke="#dff5f7"></path><path d="M0 1384.1L147 1409.1L124 1244.2Z" fill="#c4eff3" stroke="#c4eff3"></path><path d="M0 1384.1L0 1550.9L147 1409.1Z" fill="#d2f2f5" stroke="#d2f2f5"></path><path d="M1296 614.6L1133 794.5L1310 753.5Z" fill="#d2f2f5" stroke="#d2f2f5"></path><path d="M983 627.6L930 490.7L793 595.6Z" fill="#e5f7f8" stroke="#e5f7f8"></path><path d="M0 1282.2L124 1244.2L0 1137.3Z" fill="#e5f7f8" stroke="#e5f7f8"></path><path d="M0 1282.2L0 1384.1L124 1244.2Z" fill="#e2f6f7" stroke="#e2f6f7"></path><path d="M980 2374.4L1138 2356.4L1125 2248.5Z" fill="#cef1f4" stroke="#cef1f4"></path><path d="M1258 2233.5L1440 2213.5L1304 2046.6Z" fill="#d8f4f6" stroke="#d8f4f6"></path><path d="M1301 2355.4L1440 2213.5L1258 2233.5Z" fill="#c4eff3" stroke="#c4eff3"></path><path d="M793 595.6L608 610.6L814 754.5Z" fill="#e5f7f8" stroke="#e5f7f8"></path><path d="M0 1137.3L124 1244.2L164 1139.3Z" fill="#d8f4f6" stroke="#d8f4f6"></path><path d="M135 826.5L176 907.4L357 812.5Z" fill="#e5f7f8" stroke="#e5f7f8"></path><path d="M357 812.5L176 907.4L297 979.4Z" fill="#cef1f4" stroke="#cef1f4"></path><path d="M494 2335.4L665 2245.5L501 2226.5Z" fill="#e5f7f8" stroke="#e5f7f8"></path><path d="M494 2335.4L649 2375.4L665 2245.5Z" fill="#e5f7f8" stroke="#e5f7f8"></path><path d="M971 2558.3L1081 2506.3L980 2374.4Z" fill="#d8f4f6" stroke="#d8f4f6"></path><path d="M302 2052.6L354 2239.5L496 2014.6Z" fill="#d5f3f5" stroke="#d5f3f5"></path><path d="M190 2230.5L354 2239.5L302 2052.6Z" fill="#d2f2f5" stroke="#d2f2f5"></path><path d="M0 1550.9L0 1742.8L152 1749.8Z" fill="#c4eff3" stroke="#c4eff3"></path><path d="M157 1915.7L132 2061.6L302 2052.6Z" fill="#cbf1f4" stroke="#cbf1f4"></path><path d="M354 2239.5L494 2335.4L501 2226.5Z" fill="#e2f6f7" stroke="#e2f6f7"></path><path d="M1440 634.6L1296 614.6L1310 753.5Z" fill="#d5f3f5" stroke="#d5f3f5"></path><path d="M0 974.4L0 1137.3L164 1139.3Z" fill="#c4eff3" stroke="#c4eff3"></path><path d="M515 489.7L498 606.6L608 610.6Z" fill="#d8f4f6" stroke="#d8f4f6"></path><path d="M608 610.6L498 606.6L468 772.5Z" fill="#dbf5f6" stroke="#dbf5f6"></path><path d="M0 2026.6L132 2061.6L157 1915.7Z" fill="#d5f3f5" stroke="#d5f3f5"></path><path d="M1258 2548.3L1301 2355.4L1138 2356.4Z" fill="#cef1f4" stroke="#cef1f4"></path><path d="M1138 2356.4L1301 2355.4L1258 2233.5Z" fill="#cef1f4" stroke="#cef1f4"></path><path d="M0 1742.8L0 1888.7L152 1749.8Z" fill="#c4eff3" stroke="#c4eff3"></path><path d="M1084 598.6L930 490.7L983 627.6Z" fill="#c4eff3" stroke="#c4eff3"></path><path d="M793 595.6L773 453.7L608 610.6Z" fill="#cbf1f4" stroke="#cbf1f4"></path><path d="M1154 482.7L930 490.7L1084 598.6Z" fill="#c4eff3" stroke="#c4eff3"></path><path d="M498 606.6L353 648.6L468 772.5Z" fill="#d2f2f5" stroke="#d2f2f5"></path><path d="M176 907.4L0 974.4L164 1139.3Z" fill="#cbf1f4" stroke="#cbf1f4"></path><path d="M353 648.6L135 826.5L357 812.5Z" fill="#c7f0f3" stroke="#c7f0f3"></path><path d="M1440 798.5L1440 634.6L1310 753.5Z" fill="#dbf5f6" stroke="#dbf5f6"></path><path d="M1251 512.7L1154 482.7L1084 598.6Z" fill="#c4eff3" stroke="#c4eff3"></path><path d="M135 826.5L0 974.4L176 907.4Z" fill="#d8f4f6" stroke="#d8f4f6"></path><path d="M1251 512.7L1084 598.6L1296 614.6Z" fill="#dff5f7" stroke="#dff5f7"></path><path d="M1440 433.7L1251 512.7L1296 614.6Z" fill="#d8f4f6" stroke="#d8f4f6"></path><path d="M1301 2355.4L1440 2355.4L1440 2213.5Z" fill="#e5f7f8" stroke="#e5f7f8"></path><path d="M1440 2522.3L1440 2355.4L1301 2355.4Z" fill="#dbf5f6" stroke="#dbf5f6"></path><path d="M0 2192.5L190 2230.5L132 2061.6Z" fill="#dbf5f6" stroke="#dbf5f6"></path><path d="M132 2061.6L190 2230.5L302 2052.6Z" fill="#c7f0f3" stroke="#c7f0f3"></path><path d="M354 2239.5L351 2384.4L494 2335.4Z" fill="#e2f6f7" stroke="#e2f6f7"></path><path d="M836 284.8L773 453.7L930 490.7Z" fill="#c7f0f3" stroke="#c7f0f3"></path><path d="M930 490.7L773 453.7L793 595.6Z" fill="#c4eff3" stroke="#c4eff3"></path><path d="M498 606.6L292 505.7L353 648.6Z" fill="#cbf1f4" stroke="#cbf1f4"></path><path d="M786 2534.3L980 2374.4L795 2344.4Z" fill="#cbf1f4" stroke="#cbf1f4"></path><path d="M980 2374.4L1081 2506.3L1138 2356.4Z" fill="#d8f4f6" stroke="#d8f4f6"></path><path d="M786 2534.3L795 2344.4L649 2375.4Z" fill="#cef1f4" stroke="#cef1f4"></path><path d="M0 1888.7L0 2026.6L157 1915.7Z" fill="#d8f4f6" stroke="#d8f4f6"></path><path d="M773 453.7L601 470.7L608 610.6Z" fill="#d2f2f5" stroke="#d2f2f5"></path><path d="M190 2230.5L351 2384.4L354 2239.5Z" fill="#c4eff3" stroke="#c4eff3"></path><path d="M500 2501.3L631 2527.3L649 2375.4Z" fill="#e5f7f8" stroke="#e5f7f8"></path><path d="M631 2527.3L786 2534.3L649 2375.4Z" fill="#d5f3f5" stroke="#d5f3f5"></path><path d="M601 470.7L515 489.7L608 610.6Z" fill="#c4eff3" stroke="#c4eff3"></path><path d="M0 598.6L0 819.5L135 826.5Z" fill="#c7f0f3" stroke="#c7f0f3"></path><path d="M500 2501.3L649 2375.4L494 2335.4Z" fill="#c4eff3" stroke="#c4eff3"></path><path d="M932 2690.2L971 2558.3L786 2534.3Z" fill="#e5f7f8" stroke="#e5f7f8"></path><path d="M786 2534.3L971 2558.3L980 2374.4Z" fill="#d5f3f5" stroke="#d5f3f5"></path><path d="M1081 2506.3L1258 2548.3L1138 2356.4Z" fill="#c4eff3" stroke="#c4eff3"></path><path d="M351 2384.4L500 2501.3L494 2335.4Z" fill="#c4eff3" stroke="#c4eff3"></path><path d="M153 594.6L135 826.5L353 648.6Z" fill="#dff5f7" stroke="#dff5f7"></path><path d="M135 826.5L0 819.5L0 974.4Z" fill="#dff5f7" stroke="#dff5f7"></path><path d="M1097 2691.2L1258 2548.3L1081 2506.3Z" fill="#dbf5f6" stroke="#dbf5f6"></path><path d="M0 2026.6L0 2192.5L132 2061.6Z" fill="#c7f0f3" stroke="#c7f0f3"></path><path d="M190 2230.5L143 2400.4L351 2384.4Z" fill="#c4eff3" stroke="#c4eff3"></path><path d="M351 2384.4L303 2550.3L500 2501.3Z" fill="#c7f0f3" stroke="#c7f0f3"></path><path d="M358 351.8L292 505.7L515 489.7Z" fill="#cef1f4" stroke="#cef1f4"></path><path d="M515 489.7L292 505.7L498 606.6Z" fill="#cef1f4" stroke="#cef1f4"></path><path d="M292 505.7L153 594.6L353 648.6Z" fill="#cbf1f4" stroke="#cbf1f4"></path><path d="M1138 298.8L995 322.8L1154 482.7Z" fill="#dff5f7" stroke="#dff5f7"></path><path d="M1154 482.7L995 322.8L930 490.7Z" fill="#c4eff3" stroke="#c4eff3"></path><path d="M773 453.7L621 297.8L601 470.7Z" fill="#e5f7f8" stroke="#e5f7f8"></path><path d="M601 470.7L493 329.8L515 489.7Z" fill="#dbf5f6" stroke="#dbf5f6"></path><path d="M1255 339.8L1154 482.7L1251 512.7Z" fill="#c7f0f3" stroke="#c7f0f3"></path><path d="M1258 2548.3L1440 2522.3L1301 2355.4Z" fill="#c7f0f3" stroke="#c7f0f3"></path><path d="M1440 634.6L1440 433.7L1296 614.6Z" fill="#e5f7f8" stroke="#e5f7f8"></path><path d="M0 2192.5L143 2400.4L190 2230.5Z" fill="#d2f2f5" stroke="#d2f2f5"></path><path d="M1440 433.7L1255 339.8L1251 512.7Z" fill="#c4eff3" stroke="#c4eff3"></path><path d="M928 153.9L836 284.8L995 322.8Z" fill="#c4eff3" stroke="#c4eff3"></path><path d="M995 322.8L836 284.8L930 490.7Z" fill="#d8f4f6" stroke="#d8f4f6"></path><path d="M1255 339.8L1138 298.8L1154 482.7Z" fill="#dbf5f6" stroke="#dbf5f6"></path><path d="M784 2715.2L932 2690.2L786 2534.3Z" fill="#c4eff3" stroke="#c4eff3"></path><path d="M971 2558.3L1097 2691.2L1081 2506.3Z" fill="#cbf1f4" stroke="#cbf1f4"></path><path d="M1258 2548.3L1440 2704.2L1440 2522.3Z" fill="#c7f0f3" stroke="#c7f0f3"></path><path d="M784 2715.2L786 2534.3L630 2697.2Z" fill="#d2f2f5" stroke="#d2f2f5"></path><path d="M786 2534.3L631 2527.3L630 2697.2Z" fill="#c4eff3" stroke="#c4eff3"></path><path d="M836 284.8L621 297.8L773 453.7Z" fill="#d2f2f5" stroke="#d2f2f5"></path><path d="M621 297.8L493 329.8L601 470.7Z" fill="#dff5f7" stroke="#dff5f7"></path><path d="M292 505.7L155 465.7L153 594.6Z" fill="#e2f6f7" stroke="#e2f6f7"></path><path d="M143 2400.4L303 2550.3L351 2384.4Z" fill="#d5f3f5" stroke="#d5f3f5"></path><path d="M932 2690.2L1097 2691.2L971 2558.3Z" fill="#d8f4f6" stroke="#d8f4f6"></path><path d="M630 2697.2L631 2527.3L512 2691.2Z" fill="#e2f6f7" stroke="#e2f6f7"></path><path d="M932 2690.2L941 2818.1L1097 2691.2Z" fill="#e2f6f7" stroke="#e2f6f7"></path><path d="M512 2691.2L631 2527.3L500 2501.3Z" fill="#c7f0f3" stroke="#c7f0f3"></path><path d="M344 196.9L358 351.8L493 329.8Z" fill="#e5f7f8" stroke="#e5f7f8"></path><path d="M493 329.8L358 351.8L515 489.7Z" fill="#c4eff3" stroke="#c4eff3"></path><path d="M358 351.8L155 465.7L292 505.7Z" fill="#cbf1f4" stroke="#cbf1f4"></path><path d="M153 594.6L0 598.6L135 826.5Z" fill="#d2f2f5" stroke="#d2f2f5"></path><path d="M155 465.7L0 598.6L153 594.6Z" fill="#e2f6f7" stroke="#e2f6f7"></path><path d="M303 2550.3L512 2691.2L500 2501.3Z" fill="#d5f3f5" stroke="#d5f3f5"></path><path d="M764 2817.1L941 2818.1L784 2715.2Z" fill="#c7f0f3" stroke="#c7f0f3"></path><path d="M1440 433.7L1440 320.8L1255 339.8Z" fill="#d5f3f5" stroke="#d5f3f5"></path><path d="M1292 149.9L1155 144.9L1138 298.8Z" fill="#d8f4f6" stroke="#d8f4f6"></path><path d="M0 2192.5L0 2402.4L143 2400.4Z" fill="#e2f6f7" stroke="#e2f6f7"></path><path d="M129 2559.3L295 2655.2L303 2550.3Z" fill="#e2f6f7" stroke="#e2f6f7"></path><path d="M303 2550.3L295 2655.2L512 2691.2Z" fill="#e5f7f8" stroke="#e5f7f8"></path><path d="M1248 2804.1L1273 2714.2L1097 2691.2Z" fill="#e2f6f7" stroke="#e2f6f7"></path><path d="M1097 2691.2L1273 2714.2L1258 2548.3Z" fill="#d5f3f5" stroke="#d5f3f5"></path><path d="M836 284.8L675 188.9L621 297.8Z" fill="#cbf1f4" stroke="#cbf1f4"></path><path d="M621 297.8L457 168.9L493 329.8Z" fill="#d8f4f6" stroke="#d8f4f6"></path><path d="M794 144.9L675 188.9L836 284.8Z" fill="#dff5f7" stroke="#dff5f7"></path><path d="M928 153.9L995 322.8L1155 144.9Z" fill="#dbf5f6" stroke="#dbf5f6"></path><path d="M129 2559.3L303 2550.3L143 2400.4Z" fill="#cef1f4" stroke="#cef1f4"></path><path d="M0 2506.3L129 2559.3L143 2400.4Z" fill="#e5f7f8" stroke="#e5f7f8"></path><path d="M1155 144.9L995 322.8L1138 298.8Z" fill="#dbf5f6" stroke="#dbf5f6"></path><path d="M928 153.9L794 144.9L836 284.8Z" fill="#dff5f7" stroke="#dff5f7"></path><path d="M764 2817.1L784 2715.2L630 2697.2Z" fill="#c4eff3" stroke="#c4eff3"></path><path d="M784 2715.2L941 2818.1L932 2690.2Z" fill="#d5f3f5" stroke="#d5f3f5"></path><path d="M764 2817.1L630 2697.2L610 2855.1Z" fill="#c7f0f3" stroke="#c7f0f3"></path><path d="M1440 2856.1L1440 2704.2L1273 2714.2Z" fill="#dff5f7" stroke="#dff5f7"></path><path d="M1273 2714.2L1440 2704.2L1258 2548.3Z" fill="#d8f4f6" stroke="#d8f4f6"></path><path d="M610 2855.1L630 2697.2L512 2691.2Z" fill="#dff5f7" stroke="#dff5f7"></path><path d="M1292 149.9L1138 298.8L1255 339.8Z" fill="#dbf5f6" stroke="#dbf5f6"></path><path d="M928 153.9L821 0L794 144.9Z" fill="#cbf1f4" stroke="#cbf1f4"></path><path d="M129 2559.3L191 2690.2L295 2655.2Z" fill="#c4eff3" stroke="#c4eff3"></path><path d="M0 2402.4L0 2506.3L143 2400.4Z" fill="#d5f3f5" stroke="#d5f3f5"></path><path d="M125 330.8L0 446.7L155 465.7Z" fill="#e5f7f8" stroke="#e5f7f8"></path><path d="M155 465.7L0 446.7L0 598.6Z" fill="#e2f6f7" stroke="#e2f6f7"></path><path d="M125 330.8L155 465.7L358 351.8Z" fill="#d8f4f6" stroke="#d8f4f6"></path><path d="M1093 2868.1L1248 2804.1L1097 2691.2Z" fill="#e2f6f7" stroke="#e2f6f7"></path><path d="M675 188.9L457 168.9L621 297.8Z" fill="#e5f7f8" stroke="#e5f7f8"></path><path d="M645 0L457 168.9L675 188.9Z" fill="#c7f0f3" stroke="#c7f0f3"></path><path d="M344 196.9L125 330.8L358 351.8Z" fill="#e5f7f8" stroke="#e5f7f8"></path><path d="M1440 320.8L1292 149.9L1255 339.8Z" fill="#d5f3f5" stroke="#d5f3f5"></path><path d="M457 168.9L344 196.9L493 329.8Z" fill="#cef1f4" stroke="#cef1f4"></path><path d="M0 2651.2L191 2690.2L129 2559.3Z" fill="#c4eff3" stroke="#c4eff3"></path><path d="M481 2823.1L610 2855.1L512 2691.2Z" fill="#c4eff3" stroke="#c4eff3"></path><path d="M941 2818.1L1093 2868.1L1097 2691.2Z" fill="#e2f6f7" stroke="#e2f6f7"></path><path d="M995 3000L1093 2868.1L941 2818.1Z" fill="#cef1f4" stroke="#cef1f4"></path><path d="M481 2823.1L512 2691.2L295 2655.2Z" fill="#dff5f7" stroke="#dff5f7"></path><path d="M764 2817.1L830 3000L941 2818.1Z" fill="#cef1f4" stroke="#cef1f4"></path><path d="M304 2876.1L481 2823.1L295 2655.2Z" fill="#c7f0f3" stroke="#c7f0f3"></path><path d="M1440 320.8L1440 136.9L1292 149.9Z" fill="#e2f6f7" stroke="#e2f6f7"></path><path d="M975 0L928 153.9L1091 0Z" fill="#dff5f7" stroke="#dff5f7"></path><path d="M975 0L821 0L928 153.9Z" fill="#c7f0f3" stroke="#c7f0f3"></path><path d="M0 196.9L0 308.8L125 330.8Z" fill="#c7f0f3" stroke="#c7f0f3"></path><path d="M125 330.8L0 308.8L0 446.7Z" fill="#dbf5f6" stroke="#dbf5f6"></path><path d="M0 2506.3L0 2651.2L129 2559.3Z" fill="#e2f6f7" stroke="#e2f6f7"></path><path d="M191 2690.2L185 2808.1L295 2655.2Z" fill="#dff5f7" stroke="#dff5f7"></path><path d="M1276 3000L1440 2856.1L1248 2804.1Z" fill="#c4eff3" stroke="#c4eff3"></path><path d="M1248 2804.1L1440 2856.1L1273 2714.2Z" fill="#cbf1f4" stroke="#cbf1f4"></path><path d="M928 153.9L1155 144.9L1091 0Z" fill="#c4eff3" stroke="#c4eff3"></path><path d="M794 144.9L645 0L675 188.9Z" fill="#dbf5f6" stroke="#dbf5f6"></path><path d="M286 0L185 122.9L344 196.9Z" fill="#e5f7f8" stroke="#e5f7f8"></path><path d="M344 196.9L185 122.9L125 330.8Z" fill="#dff5f7" stroke="#dff5f7"></path><path d="M1091 0L1155 144.9L1308 0Z" fill="#e5f7f8" stroke="#e5f7f8"></path><path d="M1308 0L1155 144.9L1292 149.9Z" fill="#d5f3f5" stroke="#d5f3f5"></path><path d="M821 0L645 0L794 144.9Z" fill="#e5f7f8" stroke="#e5f7f8"></path><path d="M0 2651.2L185 2808.1L191 2690.2Z" fill="#dbf5f6" stroke="#dbf5f6"></path><path d="M464 3000L659 3000L610 2855.1Z" fill="#e2f6f7" stroke="#e2f6f7"></path><path d="M185 2808.1L304 2876.1L295 2655.2Z" fill="#cbf1f4" stroke="#cbf1f4"></path><path d="M659 3000L830 3000L764 2817.1Z" fill="#dbf5f6" stroke="#dbf5f6"></path><path d="M659 3000L764 2817.1L610 2855.1Z" fill="#e2f6f7" stroke="#e2f6f7"></path><path d="M1093 2868.1L1154 3000L1248 2804.1Z" fill="#dbf5f6" stroke="#dbf5f6"></path><path d="M830 3000L995 3000L941 2818.1Z" fill="#dbf5f6" stroke="#dbf5f6"></path><path d="M286 0L344 196.9L457 168.9Z" fill="#dbf5f6" stroke="#dbf5f6"></path><path d="M1440 136.9L1308 0L1292 149.9Z" fill="#dff5f7" stroke="#dff5f7"></path><path d="M464 3000L610 2855.1L481 2823.1Z" fill="#e5f7f8" stroke="#e5f7f8"></path><path d="M645 0L471 0L457 168.9Z" fill="#dff5f7" stroke="#dff5f7"></path><path d="M995 3000L1154 3000L1093 2868.1Z" fill="#c4eff3" stroke="#c4eff3"></path><path d="M0 0L0 196.9L185 122.9Z" fill="#dff5f7" stroke="#dff5f7"></path><path d="M185 122.9L0 196.9L125 330.8Z" fill="#e5f7f8" stroke="#e5f7f8"></path><path d="M1154 3000L1276 3000L1248 2804.1Z" fill="#cef1f4" stroke="#cef1f4"></path><path d="M1440 136.9L1440 0L1308 0Z" fill="#c7f0f3" stroke="#c7f0f3"></path><path d="M330 3000L464 3000L304 2876.1Z" fill="#c7f0f3" stroke="#c7f0f3"></path><path d="M304 2876.1L464 3000L481 2823.1Z" fill="#e5f7f8" stroke="#e5f7f8"></path><path d="M471 0L286 0L457 168.9Z" fill="#c7f0f3" stroke="#c7f0f3"></path><path d="M1276 3000L1440 3000L1440 2856.1Z" fill="#e2f6f7" stroke="#e2f6f7"></path><path d="M154 3000L304 2876.1L185 2808.1Z" fill="#d2f2f5" stroke="#d2f2f5"></path><path d="M154 3000L330 3000L304 2876.1Z" fill="#dff5f7" stroke="#dff5f7"></path><path d="M286 0L166 0L185 122.9Z" fill="#dff5f7" stroke="#dff5f7"></path><path d="M0 2651.2L0 2868.1L185 2808.1Z" fill="#e2f6f7" stroke="#e2f6f7"></path><path d="M0 2868.1L154 3000L185 2808.1Z" fill="#dbf5f6" stroke="#dbf5f6"></path><path d="M166 0L0 0L185 122.9Z" fill="#c4eff3" stroke="#c4eff3"></path><path d="M0 2868.1L0 3000L154 3000Z" fill="#dbf5f6" stroke="#dbf5f6"></path></g></svg>