<svg id="visual" viewBox="0 0 1440 900" width="1440" height="900" xmlns="http://www.w3.org/2000/svg" xmlns:xlink="http://www.w3.org/1999/xlink" version="1.1"><g stroke-width="1" stroke-linejoin="bevel"><path d="M771 449L670 613L810 572Z" fill="#060b14" stroke="#060b14"></path><path d="M771 449L604 447L670 613Z" fill="#060c14" stroke="#060c14"></path><path d="M771 449L634 330L604 447Z" fill="#060a13" stroke="#060a13"></path><path d="M670 613L829 726L810 572Z" fill="#060c14" stroke="#060c14"></path><path d="M957 440L817 314L771 449Z" fill="#060c14" stroke="#060c14"></path><path d="M771 449L817 314L634 330Z" fill="#060b13" stroke="#060b13"></path><path d="M957 440L771 449L810 572Z" fill="#060a13" stroke="#060a13"></path><path d="M509 330L488 455L604 447Z" fill="#070e14" stroke="#070e14"></path><path d="M604 447L456 596L670 613Z" fill="#060b14" stroke="#060b14"></path><path d="M985 624L957 440L810 572Z" fill="#060b13" stroke="#060b13"></path><path d="M470 725L632 784L670 613Z" fill="#060c14" stroke="#060c14"></path><path d="M670 613L632 784L829 726Z" fill="#060a13" stroke="#060a13"></path><path d="M488 455L456 596L604 447Z" fill="#070d14" stroke="#070d14"></path><path d="M829 726L985 624L810 572Z" fill="#070e14" stroke="#070e14"></path><path d="M606 122L509 330L634 330Z" fill="#060a13" stroke="#060a13"></path><path d="M634 330L509 330L604 447Z" fill="#060c14" stroke="#060c14"></path><path d="M488 455L357 483L456 596Z" fill="#070e14" stroke="#070e14"></path><path d="M456 596L470 725L670 613Z" fill="#070e14" stroke="#070e14"></path><path d="M784 900L935 769L829 726Z" fill="#070e14" stroke="#070e14"></path><path d="M829 726L935 769L985 624Z" fill="#070e14" stroke="#070e14"></path><path d="M1093 335L967 273L957 440Z" fill="#070d14" stroke="#070d14"></path><path d="M957 440L967 273L817 314Z" fill="#060a13" stroke="#060a13"></path><path d="M817 314L808 125L634 330Z" fill="#070e14" stroke="#070e14"></path><path d="M359 301L357 483L488 455Z" fill="#060a13" stroke="#060a13"></path><path d="M456 596L344 726L470 725Z" fill="#060b13" stroke="#060b13"></path><path d="M446 900L673 900L632 784Z" fill="#060c14" stroke="#060c14"></path><path d="M632 784L784 900L829 726Z" fill="#060a13" stroke="#060a13"></path><path d="M673 900L784 900L632 784Z" fill="#060b14" stroke="#060b14"></path><path d="M1137 618L1106 446L985 624Z" fill="#060a13" stroke="#060a13"></path><path d="M985 624L1106 446L957 440Z" fill="#060b13" stroke="#060b13"></path><path d="M967 273L808 125L817 314Z" fill="#060c14" stroke="#060c14"></path><path d="M1106 446L1093 335L957 440Z" fill="#060a13" stroke="#060a13"></path><path d="M967 273L998 118L808 125Z" fill="#070d14" stroke="#070d14"></path><path d="M357 483L304 592L456 596Z" fill="#060b13" stroke="#060b13"></path><path d="M470 725L446 900L632 784Z" fill="#070d14" stroke="#070d14"></path><path d="M1116 762L1137 618L985 624Z" fill="#070e14" stroke="#070e14"></path><path d="M1106 446L1249 468L1093 335Z" fill="#060c14" stroke="#060c14"></path><path d="M1116 762L985 624L935 769Z" fill="#060c14" stroke="#060c14"></path><path d="M304 592L344 726L456 596Z" fill="#060a13" stroke="#060a13"></path><path d="M808 125L606 122L634 330Z" fill="#060c14" stroke="#060c14"></path><path d="M509 330L359 301L488 455Z" fill="#060a13" stroke="#060a13"></path><path d="M476 137L359 301L509 330Z" fill="#070d14" stroke="#070d14"></path><path d="M357 483L144 459L304 592Z" fill="#060c14" stroke="#060c14"></path><path d="M784 900L978 900L935 769Z" fill="#060d14" stroke="#060d14"></path><path d="M978 900L1116 762L935 769Z" fill="#060c14" stroke="#060c14"></path><path d="M344 726L446 900L470 725Z" fill="#060d14" stroke="#060d14"></path><path d="M606 122L476 137L509 330Z" fill="#060b13" stroke="#060b13"></path><path d="M1106 124L998 118L967 273Z" fill="#060c14" stroke="#060c14"></path><path d="M808 125L761 0L606 122Z" fill="#060a13" stroke="#060a13"></path><path d="M1272 586L1249 468L1137 618Z" fill="#060a13" stroke="#060a13"></path><path d="M1137 618L1249 468L1106 446Z" fill="#070d14" stroke="#070d14"></path><path d="M1093 335L1106 124L967 273Z" fill="#070d14" stroke="#070d14"></path><path d="M933 0L761 0L808 125Z" fill="#070e14" stroke="#070e14"></path><path d="M606 122L454 0L476 137Z" fill="#060a13" stroke="#060a13"></path><path d="M761 0L614 0L606 122Z" fill="#060b14" stroke="#060b14"></path><path d="M978 900L1128 900L1116 762Z" fill="#060b13" stroke="#060b13"></path><path d="M1310 748L1272 586L1137 618Z" fill="#060d14" stroke="#060d14"></path><path d="M454 0L341 134L476 137Z" fill="#060b13" stroke="#060b13"></path><path d="M476 137L341 134L359 301Z" fill="#060c14" stroke="#060c14"></path><path d="M177 286L144 459L357 483Z" fill="#060c14" stroke="#060c14"></path><path d="M344 726L311 900L446 900Z" fill="#060a13" stroke="#060a13"></path><path d="M155 728L311 900L344 726Z" fill="#060a13" stroke="#060a13"></path><path d="M1310 748L1137 618L1116 762Z" fill="#060b13" stroke="#060b13"></path><path d="M1256 262L1106 124L1093 335Z" fill="#060b14" stroke="#060b14"></path><path d="M998 118L933 0L808 125Z" fill="#060c14" stroke="#060c14"></path><path d="M1159 0L933 0L998 118Z" fill="#070d14" stroke="#070d14"></path><path d="M177 286L357 483L359 301Z" fill="#060b14" stroke="#060b14"></path><path d="M304 592L155 728L344 726Z" fill="#060a13" stroke="#060a13"></path><path d="M614 0L454 0L606 122Z" fill="#070e14" stroke="#070e14"></path><path d="M144 459L127 583L304 592Z" fill="#060a13" stroke="#060a13"></path><path d="M1249 468L1256 262L1093 335Z" fill="#060c14" stroke="#060c14"></path><path d="M1440 294L1256 262L1249 468Z" fill="#060d14" stroke="#060d14"></path><path d="M341 134L177 286L359 301Z" fill="#070d14" stroke="#070d14"></path><path d="M199 136L177 286L341 134Z" fill="#060d14" stroke="#060d14"></path><path d="M127 583L155 728L304 592Z" fill="#070e14" stroke="#070e14"></path><path d="M1274 900L1310 748L1116 762Z" fill="#070d14" stroke="#070d14"></path><path d="M1272 586L1440 468L1249 468Z" fill="#070e14" stroke="#070e14"></path><path d="M1440 159L1250 181L1256 262Z" fill="#070d14" stroke="#070d14"></path><path d="M1256 262L1250 181L1106 124Z" fill="#070d14" stroke="#070d14"></path><path d="M1106 124L1159 0L998 118Z" fill="#060a13" stroke="#060a13"></path><path d="M305 0L199 136L341 134Z" fill="#060c14" stroke="#060c14"></path><path d="M0 452L127 583L144 459Z" fill="#070d14" stroke="#070d14"></path><path d="M1128 900L1274 900L1116 762Z" fill="#070e14" stroke="#070e14"></path><path d="M454 0L305 0L341 134Z" fill="#060b13" stroke="#060b13"></path><path d="M0 726L147 900L155 728Z" fill="#070e14" stroke="#070e14"></path><path d="M155 728L147 900L311 900Z" fill="#070e14" stroke="#070e14"></path><path d="M1241 0L1159 0L1106 124Z" fill="#070d14" stroke="#070d14"></path><path d="M1440 763L1440 574L1310 748Z" fill="#060c14" stroke="#060c14"></path><path d="M1310 748L1440 574L1272 586Z" fill="#060a13" stroke="#060a13"></path><path d="M1440 574L1440 468L1272 586Z" fill="#060d14" stroke="#060d14"></path><path d="M1250 181L1241 0L1106 124Z" fill="#060a13" stroke="#060a13"></path><path d="M0 452L0 607L127 583Z" fill="#060a13" stroke="#060a13"></path><path d="M127 583L0 726L155 728Z" fill="#060a13" stroke="#060a13"></path><path d="M0 452L144 459L0 335Z" fill="#060a13" stroke="#060a13"></path><path d="M0 335L144 459L177 286Z" fill="#060d14" stroke="#060d14"></path><path d="M1440 159L1241 0L1250 181Z" fill="#070e14" stroke="#070e14"></path><path d="M0 607L0 726L127 583Z" fill="#060a13" stroke="#060a13"></path><path d="M0 166L177 286L199 136Z" fill="#060d14" stroke="#060d14"></path><path d="M0 166L0 335L177 286Z" fill="#060a13" stroke="#060a13"></path><path d="M1440 900L1440 763L1310 748Z" fill="#070e14" stroke="#070e14"></path><path d="M1440 468L1440 294L1249 468Z" fill="#060c14" stroke="#060c14"></path><path d="M305 0L163 0L199 136Z" fill="#060a13" stroke="#060a13"></path><path d="M1274 900L1440 900L1310 748Z" fill="#060a13" stroke="#060a13"></path><path d="M1440 294L1440 159L1256 262Z" fill="#070e14" stroke="#070e14"></path><path d="M163 0L0 166L199 136Z" fill="#070e14" stroke="#070e14"></path><path d="M0 726L0 900L147 900Z" fill="#060c14" stroke="#060c14"></path><path d="M1440 159L1440 0L1241 0Z" fill="#060a13" stroke="#060a13"></path><path d="M163 0L0 0L0 166Z" fill="#060c14" stroke="#060c14"></path></g></svg>