<?xml version="1.0" standalone="no"?>
<!DOCTYPE svg PUBLIC "-//W3C//DTD SVG 20010904//EN"
 "http://www.w3.org/TR/2001/REC-SVG-20010904/DTD/svg10.dtd">
<svg version="1.0" xmlns="http://www.w3.org/2000/svg"
 width="2048.000000pt" height="2048.000000pt" viewBox="0 0 2048.000000 2048.000000"
 preserveAspectRatio="xMidYMid meet">

<g transform="translate(0.000000,2048.000000) scale(0.100000,-0.100000)"
fill="#000000" stroke="none">
<path d="M8062 15172 c-11 -9 -84 -154 -161 -322 l-140 -305 -58 -33 c-107
-62 -216 -146 -334 -260 l-118 -113 -2473 270 c-1360 149 -2482 272 -2493 274
-40 4 -24 -99 129 -832 80 -387 144 -707 141 -709 -3 -3 -197 37 -432 88 -396
86 -427 91 -439 75 -14 -18 -9 -41 9 -48 7 -2 206 -46 442 -98 237 -51 433
-95 437 -98 7 -6 558 -2671 558 -2700 0 -13 -8 -16 -38 -13 -27 3 -42 -1 -52
-13 -29 -35 6 -45 301 -91 3699 -578 5154 -804 5179 -804 16 0 30 5 30 11 0 5
5 7 10 4 6 -3 10 -17 10 -31 0 -20 5 -24 30 -24 22 0 58 22 142 88 62 49 397
307 743 573 347 267 768 592 937 722 170 130 316 237 326 237 9 0 34 11 55 25
40 28 51 70 21 82 -12 4 -12 8 -4 13 18 11 12 12 -325 75 -165 31 -673 126
-1130 211 -456 85 -891 167 -966 181 l-136 25 -23 135 c-12 74 -20 137 -17
139 2 2 330 -59 728 -137 398 -77 760 -147 804 -154 44 -8 251 -48 460 -89
209 -42 397 -76 417 -76 21 0 55 -7 75 -15 21 -8 539 -112 1152 -231 992 -192
1115 -214 1129 -201 16 17 11 44 -10 52 -7 3 -263 54 -568 113 l-555 107 -6
115 c-20 368 -174 909 -361 1272 -91 177 -190 285 -243 264 -28 -10 -16 -35
49 -100 57 -56 75 -85 155 -247 174 -353 313 -851 328 -1172 l6 -118 -24 5
c-13 3 -258 51 -543 107 -286 55 -527 104 -537 109 -9 5 -19 7 -22 4 -2 -3
-167 27 -366 66 -199 38 -373 70 -388 70 -15 0 -40 5 -57 11 -17 6 -393 81
-836 168 l-805 156 -57 330 c-31 182 -59 347 -62 368 l-6 37 41 0 c23 0 68 7
101 16 33 8 61 14 63 12 1 -2 13 -23 25 -48 62 -125 180 -182 304 -146 99 29
232 178 196 221 -21 25 -37 17 -79 -42 -72 -102 -164 -142 -249 -108 -47 19
-95 69 -117 122 -14 33 -14 38 1 54 38 42 -12 76 -66 45 -59 -35 -99 -48 -162
-53 -78 -7 -68 -24 -97 162 -100 629 -178 1102 -184 1113 -5 6 -24 12 -42 12
-35 0 -373 36 -434 46 l-34 5 69 70 c90 92 237 204 327 249 l72 36 135 292
c74 160 138 293 141 297 7 7 318 -341 327 -365 7 -21 54 -59 73 -60 8 0 19 4
25 10 6 6 67 -2 177 -24 716 -147 1518 -512 1865 -848 131 -127 173 -196 181
-297 5 -58 9 -66 28 -69 13 -2 27 5 37 20 14 19 67 37 314 105 163 45 297 81
298 80 1 -1 -54 -144 -122 -317 -68 -173 -123 -327 -124 -341 0 -34 28 -46 50
-22 22 24 292 718 288 741 -2 11 -14 18 -33 20 -17 1 -165 -35 -331 -81 -347
-96 -321 -97 -376 13 -36 74 -169 216 -283 305 -289 225 -771 463 -1255 620
-179 58 -490 137 -634 161 l-108 19 -111 125 c-62 68 -148 165 -191 215 -44
49 -85 93 -92 97 -7 5 -21 0 -32 -10z m-3273 -832 c1317 -143 2396 -262 2399
-264 2 -3 -25 -40 -61 -83 -174 -212 -334 -455 -503 -763 -23 -43 -115 -260
-156 -370 -50 -131 -106 -348 -114 -440 -4 -43 -11 -70 -19 -70 -6 0 -313 59
-681 131 -368 72 -705 137 -749 145 -109 20 -2264 490 -2269 495 -4 4 -306
1468 -306 1482 0 4 15 5 33 2 17 -3 1109 -122 2426 -265z m2761 -300 c107 -11
208 -21 224 -22 l30 -3 68 -430 c37 -236 74 -475 82 -530 8 -55 19 -122 25
-150 23 -111 24 -105 -7 -94 -77 29 -132 98 -132 166 0 46 -51 56 -65 13 -7
-24 3 -87 21 -120 30 -58 143 -139 196 -140 9 0 19 -8 22 -17 10 -38 118 -705
114 -708 -4 -4 -1709 324 -1715 329 -1 1 4 48 13 104 65 440 398 1094 792
1555 64 75 68 78 102 73 19 -3 123 -15 230 -26z m-3770 -1241 c1291 -282 1016
-226 2875 -585 814 -157 1483 -289 1487 -292 10 -10 51 -262 44 -269 -3 -3
-484 84 -1068 193 -585 109 -1082 200 -1106 202 -55 5 -72 -3 -332 -163 -881
-542 -2456 -1508 -2466 -1512 -8 -3 -15 5 -19 19 -8 35 -545 2648 -545 2653 0
2 6 2 13 0 6 -3 509 -113 1117 -246z m2405 -848 c138 -20 2010 -372 2017 -379
3 -4 83 -464 177 -1022 94 -558 174 -1028 177 -1045 6 -25 4 -28 -8 -17 -8 6
-1190 195 -2644 422 -1445 226 -2629 412 -2631 413 -1 2 591 366 1315 811 724
444 1328 816 1341 825 25 17 102 15 256 -8z m2432 -450 c175 -33 516 -96 758
-141 242 -45 644 -119 893 -166 250 -46 456 -84 458 -84 7 0 -55 -51 -151
-125 -49 -38 -335 -258 -635 -489 -1088 -837 -1301 -1001 -1308 -1003 -6 -2
-353 2032 -352 2060 0 11 -5 11 337 -52z"/>
<path d="M7605 13450 c-42 -7 -124 -50 -145 -75 -18 -22 -14 -84 7 -113 67
-90 192 -95 275 -12 43 42 48 74 23 134 -31 73 -58 85 -160 66z"/>
<path d="M9111 12968 c-56 -28 -101 -81 -101 -120 0 -17 9 -46 21 -65 42 -67
115 -81 202 -37 93 48 100 84 31 168 -25 31 -46 56 -47 56 -1 0 -16 4 -34 9
-25 7 -40 5 -72 -11z"/>
</g>
</svg>
