<?xml version="1.0" standalone="no"?>
<!DOCTYPE svg PUBLIC "-//W3C//DTD SVG 20010904//EN"
 "http://www.w3.org/TR/2001/REC-SVG-20010904/DTD/svg10.dtd">
<svg version="1.0" xmlns="http://www.w3.org/2000/svg"
 width="2048.000000pt" height="2048.000000pt" viewBox="0 0 2048.000000 2048.000000"
 preserveAspectRatio="xMidYMid meet">

<g transform="translate(0.000000,2048.000000) scale(0.100000,-0.100000)"
fill="#000000" stroke="none">
<path d="M10103 12710 c-118 -24 -212 -140 -244 -299 -17 -89 -7 -296 21 -391
23 -81 101 -253 127 -282 19 -22 52 -23 59 -3 3 8 -19 65 -50 127 -72 146 -99
256 -100 403 -1 184 56 315 160 365 149 73 364 -69 489 -323 83 -168 99 -238
98 -429 l0 -158 23 0 c30 0 33 7 44 97 22 200 -46 456 -171 640 -120 176 -311
282 -456 253z"/>
<path d="M6255 12584 c-72 -53 -180 -160 -230 -229 -61 -85 -121 -214 -141
-302 -22 -101 -16 -229 16 -301 31 -72 110 -143 185 -167 72 -22 193 -16 280
14 190 67 388 256 485 463 48 103 72 201 68 277 -3 52 -5 56 -28 56 -23 0 -25
-5 -36 -82 -21 -145 -70 -259 -165 -386 -140 -185 -388 -315 -546 -286 -92 18
-147 61 -184 144 -92 210 86 588 359 759 33 21 42 32 40 49 -5 36 -46 32 -103
-9z"/>
</g>
</svg>
