<?xml version="1.0" standalone="no"?>
<!DOCTYPE svg PUBLIC "-//W3C//DTD SVG 20010904//EN"
 "http://www.w3.org/TR/2001/REC-SVG-20010904/DTD/svg10.dtd">
<svg version="1.0" xmlns="http://www.w3.org/2000/svg"
 width="2048.000000pt" height="2048.000000pt" viewBox="0 0 2048.000000 2048.000000"
 preserveAspectRatio="xMidYMid meet">

<g transform="translate(0.000000,2048.000000) scale(0.100000,-0.100000)"
fill="#000000" stroke="none">
<path d="M6258 13370 c-44 -13 -93 -47 -133 -92 -142 -156 -153 -474 -27 -781
37 -91 62 -118 88 -96 20 17 18 27 -21 111 -193 418 -52 878 242 793 291 -85
521 -574 433 -919 -22 -88 -19 -108 19 -104 23 3 28 10 44 73 38 149 19 375
-47 550 -82 215 -246 403 -400 455 -61 20 -149 25 -198 10z"/>
<path d="M9856 11729 c-146 -155 -241 -328 -266 -485 -29 -178 43 -322 184
-371 65 -22 188 -21 276 2 212 55 462 246 607 463 75 111 122 224 103 247 -24
29 -39 15 -86 -81 -180 -369 -602 -647 -865 -571 -98 29 -149 99 -157 212 -10
165 83 360 261 545 53 54 77 86 73 96 -3 9 -6 18 -6 20 0 2 -11 4 -24 4 -17 0
-46 -23 -100 -81z"/>
</g>
</svg>
